<svg width="140" height="24" viewBox="0 0 140 24" fill="none" xmlns="http://www.w3.org/2000/svg">
<path d="M16.8594 23L15.2031 17.5625H6.875L5.21875 23H0L8.0625 0.0625H13.9844L22.0781 23H16.8594ZM14.0469 13.5L12.3906 8.1875C12.2865 7.83333 12.1458 7.38021 11.9688 6.82812C11.8021 6.26562 11.6302 5.69792 11.4531 5.125C11.2865 4.54167 11.151 4.03646 11.0469 3.60938C10.9427 4.03646 10.7969 4.56771 10.6094 5.20312C10.4323 5.82812 10.2604 6.42188 10.0938 6.98438C9.92708 7.54688 9.80729 7.94792 9.73438 8.1875L8.09375 13.5H14.0469ZM34.3438 5.20312C34.5833 5.20312 34.8594 5.21875 35.1719 5.25C35.4948 5.27083 35.7552 5.30208 35.9531 5.34375L35.5938 9.8125C35.4375 9.76042 35.2135 9.72396 34.9219 9.70312C34.6406 9.67188 34.3958 9.65625 34.1875 9.65625C33.5729 9.65625 32.974 9.73438 32.3906 9.89062C31.8177 10.0469 31.3021 10.3021 30.8438 10.6562C30.3854 11 30.0208 11.4583 29.75 12.0312C29.4896 12.5938 29.3594 13.2865 29.3594 14.1094V23H24.5938V5.53125H28.2031L28.9062 8.46875H29.1406C29.4844 7.875 29.9115 7.33333 30.4219 6.84375C30.9427 6.34375 31.5312 5.94792 32.1875 5.65625C32.8542 5.35417 33.5729 5.20312 34.3438 5.20312ZM55 14.2344C55 15.6927 54.8021 16.9844 54.4062 18.1094C54.0208 19.2344 53.4531 20.1875 52.7031 20.9688C51.9635 21.7396 51.0677 22.3229 50.0156 22.7188C48.974 23.1146 47.7969 23.3125 46.4844 23.3125C45.2552 23.3125 44.125 23.1146 43.0938 22.7188C42.0729 22.3229 41.1823 21.7396 40.4219 20.9688C39.6719 20.1875 39.0885 19.2344 38.6719 18.1094C38.2656 16.9844 38.0625 15.6927 38.0625 14.2344C38.0625 12.2969 38.4062 10.6562 39.0938 9.3125C39.7812 7.96875 40.7604 6.94792 42.0312 6.25C43.3021 5.55208 44.8177 5.20312 46.5781 5.20312C48.2135 5.20312 49.6615 5.55208 50.9219 6.25C52.1927 6.94792 53.1875 7.96875 53.9062 9.3125C54.6354 10.6562 55 12.2969 55 14.2344ZM42.9219 14.2344C42.9219 15.3802 43.0469 16.3438 43.2969 17.125C43.5469 17.9062 43.9375 18.4948 44.4688 18.8906C45 19.2865 45.6927 19.4844 46.5469 19.4844C47.3906 19.4844 48.0729 19.2865 48.5938 18.8906C49.125 18.4948 49.5104 17.9062 49.75 17.125C50 16.3438 50.125 15.3802 50.125 14.2344C50.125 13.0781 50 12.1198 49.75 11.3594C49.5104 10.5885 49.125 10.0104 48.5938 9.625C48.0625 9.23958 47.3698 9.04688 46.5156 9.04688C45.2552 9.04688 44.3385 9.47917 43.7656 10.3438C43.2031 11.2083 42.9219 12.5052 42.9219 14.2344ZM79.4531 5.20312C81.4323 5.20312 82.9271 5.71354 83.9375 6.73438C84.9583 7.74479 85.4688 9.36979 85.4688 11.6094V23H80.6875V12.7969C80.6875 11.5469 80.474 10.6042 80.0469 9.96875C79.6198 9.33333 78.9583 9.01562 78.0625 9.01562C76.8021 9.01562 75.9062 9.46875 75.375 10.375C74.8438 11.2708 74.5781 12.5573 74.5781 14.2344V23H69.8125V12.7969C69.8125 11.9635 69.7188 11.2656 69.5312 10.7031C69.3438 10.1406 69.0573 9.71875 68.6719 9.4375C68.2865 9.15625 67.7917 9.01562 67.1875 9.01562C66.3021 9.01562 65.6042 9.23958 65.0938 9.6875C64.5938 10.125 64.2344 10.776 64.0156 11.6406C63.8073 12.4948 63.7031 13.5417 63.7031 14.7812V23H58.9375V5.53125H62.5781L63.2188 7.76562H63.4844C63.8385 7.16146 64.2812 6.67188 64.8125 6.29688C65.3542 5.92188 65.9479 5.64583 66.5938 5.46875C67.2396 5.29167 67.8958 5.20312 68.5625 5.20312C69.8438 5.20312 70.9271 5.41146 71.8125 5.82812C72.7083 6.24479 73.3958 6.89062 73.875 7.76562H74.2969C74.8177 6.86979 75.5521 6.21875 76.5 5.8125C77.4583 5.40625 78.4427 5.20312 79.4531 5.20312ZM97.5312 5.17188C99.875 5.17188 101.672 5.68229 102.922 6.70312C104.172 7.72396 104.797 9.27604 104.797 11.3594V23H101.469L100.547 20.625H100.422C99.9219 21.25 99.4115 21.7604 98.8906 22.1562C98.3698 22.5521 97.7708 22.8438 97.0938 23.0312C96.4167 23.2188 95.5938 23.3125 94.625 23.3125C93.5938 23.3125 92.6667 23.1146 91.8438 22.7188C91.0312 22.3229 90.3906 21.7188 89.9219 20.9062C89.4531 20.0833 89.2188 19.0417 89.2188 17.7812C89.2188 15.9271 89.8698 14.5625 91.1719 13.6875C92.474 12.8021 94.4271 12.3125 97.0312 12.2188L100.062 12.125V11.3594C100.062 10.4427 99.8229 9.77083 99.3438 9.34375C98.8646 8.91667 98.1979 8.70312 97.3438 8.70312C96.5 8.70312 95.6719 8.82292 94.8594 9.0625C94.0469 9.30208 93.2344 9.60417 92.4219 9.96875L90.8438 6.75C91.7708 6.26042 92.8073 5.875 93.9531 5.59375C95.1094 5.3125 96.3021 5.17188 97.5312 5.17188ZM100.062 14.9062L98.2188 14.9688C96.6771 15.0104 95.6042 15.2865 95 15.7969C94.4062 16.3073 94.1094 16.9792 94.1094 17.8125C94.1094 18.5417 94.3229 19.0625 94.75 19.375C95.1771 19.6771 95.7344 19.8281 96.4219 19.8281C97.4427 19.8281 98.3021 19.526 99 18.9219C99.7083 18.3177 100.062 17.4583 100.062 16.3438V14.9062ZM117.078 19.5156C117.599 19.5156 118.104 19.4635 118.594 19.3594C119.094 19.2552 119.589 19.125 120.078 18.9688V22.5156C119.568 22.7448 118.932 22.9323 118.172 23.0781C117.422 23.2344 116.599 23.3125 115.703 23.3125C114.661 23.3125 113.724 23.1458 112.891 22.8125C112.068 22.4688 111.417 21.8802 110.938 21.0469C110.469 20.2031 110.234 19.0312 110.234 17.5312V9.10938H107.953V7.09375L110.578 5.5L111.953 1.8125H115V5.53125H119.891V9.10938H115V17.5312C115 18.1979 115.188 18.6979 115.562 19.0312C115.948 19.3542 116.453 19.5156 117.078 19.5156ZM139.5 14.2344C139.5 15.6927 139.302 16.9844 138.906 18.1094C138.521 19.2344 137.953 20.1875 137.203 20.9688C136.464 21.7396 135.568 22.3229 134.516 22.7188C133.474 23.1146 132.297 23.3125 130.984 23.3125C129.755 23.3125 128.625 23.1146 127.594 22.7188C126.573 22.3229 125.682 21.7396 124.922 20.9688C124.172 20.1875 123.589 19.2344 123.172 18.1094C122.766 16.9844 122.562 15.6927 122.562 14.2344C122.562 12.2969 122.906 10.6562 123.594 9.3125C124.281 7.96875 125.26 6.94792 126.531 6.25C127.802 5.55208 129.318 5.20312 131.078 5.20312C132.714 5.20312 134.161 5.55208 135.422 6.25C136.693 6.94792 137.688 7.96875 138.406 9.3125C139.135 10.6562 139.5 12.2969 139.5 14.2344ZM127.422 14.2344C127.422 15.3802 127.547 16.3438 127.797 17.125C128.047 17.9062 128.438 18.4948 128.969 18.8906C129.5 19.2865 130.193 19.4844 131.047 19.4844C131.891 19.4844 132.573 19.2865 133.094 18.8906C133.625 18.4948 134.01 17.9062 134.25 17.125C134.5 16.3438 134.625 15.3802 134.625 14.2344C134.625 13.0781 134.5 12.1198 134.25 11.3594C134.01 10.5885 133.625 10.0104 133.094 9.625C132.562 9.23958 131.87 9.04688 131.016 9.04688C129.755 9.04688 128.839 9.47917 128.266 10.3438C127.703 11.2083 127.422 12.5052 127.422 14.2344Z" fill="#121212"/>
</svg>
